<?xml version="1.0" standalone="no"?>
<!DOCTYPE svg PUBLIC "-//W3C//DTD SVG 20010904//EN"
 "http://www.w3.org/TR/2001/REC-SVG-20010904/DTD/svg10.dtd">
<svg version="1.0" xmlns="http://www.w3.org/2000/svg"
 width="512.000000pt" height="512.000000pt" viewBox="0 0 512.000000 512.000000"
 preserveAspectRatio="xMidYMid meet">

<g transform="translate(0.000000,512.000000) scale(0.100000,-0.100000)"
fill="#000000" stroke="none">
<path d="M2515 5111 c-26 -11 -45 -34 -80 -96 -64 -112 -169 -196 -312 -249
-147 -55 -245 -141 -305 -266 -17 -36 -32 -66 -32 -67 -1 -2 -25 6 -54 17
-127 48 -262 46 -387 -6 -150 -64 -198 -76 -285 -77 -47 0 -113 7 -148 17 -95
24 -119 21 -158 -18 -39 -39 -42 -63 -18 -158 10 -35 17 -101 17 -148 -1 -87
-13 -135 -77 -286 -52 -124 -54 -260 -6 -387 11 -28 19 -52 17 -53 -1 0 -31
-15 -67 -32 -125 -60 -211 -158 -266 -305 -54 -146 -139 -250 -256 -316 -78
-44 -93 -64 -93 -121 0 -57 15 -77 93 -121 117 -66 202 -170 256 -316 55 -147
141 -245 266 -305 36 -17 66 -32 67 -32 2 -1 -6 -25 -17 -54 -48 -127 -46
-262 6 -387 64 -150 76 -198 77 -285 0 -47 -7 -113 -17 -148 -24 -95 -21 -119
18 -158 39 -39 71 -43 151 -18 29 9 89 16 145 16 99 1 134 -8 296 -76 124 -52
260 -54 387 -6 28 11 52 19 53 17 0 -1 15 -31 32 -67 60 -125 158 -211 305
-266 146 -54 250 -139 316 -256 44 -78 64 -93 121 -93 58 0 75 13 126 102 44
73 139 167 205 200 24 12 79 37 122 54 141 57 256 164 301 283 14 37 22 46 35
40 76 -32 144 -46 221 -47 97 0 139 10 265 63 113 49 197 63 297 50 41 -5 87
-14 102 -20 54 -20 95 -13 132 24 39 39 43 71 18 151 -9 30 -16 89 -16 145 -1
99 9 137 76 295 52 125 54 260 6 387 -11 29 -19 53 -17 54 1 0 31 15 67 32
125 60 211 158 266 305 54 146 139 250 256 316 78 44 93 64 93 121 0 57 -15
77 -93 121 -98 55 -167 131 -218 239 -25 52 -60 124 -77 160 -42 88 -133 178
-224 220 -37 18 -69 34 -70 34 -2 1 6 25 17 54 48 127 46 262 -6 387 -68 161
-77 196 -76 295 0 56 7 116 16 145 25 80 21 112 -18 151 -39 39 -63 42 -158
18 -35 -10 -101 -17 -148 -17 -87 1 -135 13 -286 77 -124 52 -260 54 -387 6
-28 -11 -52 -19 -53 -17 0 1 -15 31 -32 67 -61 127 -157 210 -315 270 -144 56
-240 136 -306 252 -17 30 -40 63 -50 72 -22 20 -87 30 -116 17z m74 -224 c32
-52 135 -148 202 -189 34 -20 97 -51 141 -68 150 -57 232 -142 262 -272 l6
-27 -42 15 c-155 54 -332 85 -533 91 l-170 5 -23 -25 c-33 -35 -27 -75 16
-100 27 -16 63 -21 185 -28 455 -24 851 -201 1163 -521 241 -247 390 -528 466
-878 19 -91 22 -134 22 -330 0 -255 -12 -336 -84 -551 -169 -508 -581 -920
-1089 -1089 -215 -72 -296 -84 -551 -84 -196 0 -239 3 -330 22 -350 76 -631
225 -878 466 -254 248 -416 544 -494 906 -19 91 -22 135 -23 325 0 248 15 354
79 543 193 575 665 1011 1240 1147 33 8 68 23 79 34 26 25 26 74 1 102 -16 18
-26 20 -74 15 -30 -3 -97 -19 -147 -35 l-93 -29 6 27 c29 123 117 217 249 266
39 15 97 41 130 58 65 35 192 149 226 203 11 19 24 34 29 34 5 0 18 -15 29
-33z m-939 -568 c19 -5 51 -18 70 -30 28 -18 32 -24 20 -31 -8 -5 -55 -31
-105 -59 -308 -174 -566 -438 -735 -752 -23 -42 -46 -75 -51 -71 -19 11 -48
83 -58 140 -12 78 0 149 44 250 19 45 42 108 50 140 17 64 22 213 10 283 l-7
43 43 -7 c70 -12 219 -7 283 10 32 8 96 31 141 51 120 52 191 60 295 33z
m2001 6 c20 -3 72 -21 116 -40 44 -19 106 -41 139 -50 64 -17 212 -22 283 -10
l43 7 -7 -43 c-12 -70 -7 -219 10 -283 8 -32 31 -95 50 -140 44 -101 56 -172
44 -250 -9 -56 -39 -129 -58 -140 -5 -3 -36 43 -69 102 -177 317 -468 598
-782 757 -28 14 -48 30 -45 35 12 19 84 50 137 59 52 9 66 8 139 -4z m-2887
-1202 c-53 -171 -75 -307 -81 -508 -4 -149 -2 -215 11 -305 17 -116 53 -269
80 -348 l15 -42 -27 6 c-130 30 -215 112 -272 262 -17 44 -48 107 -68 141 -41
67 -137 170 -189 202 -18 11 -33 24 -33 29 0 5 15 18 34 29 97 60 217 226 260
358 28 84 97 169 171 210 26 14 98 40 116 42 4 1 -4 -34 -17 -76z m3663 47
c94 -41 155 -112 203 -238 17 -44 48 -107 68 -141 41 -67 137 -170 189 -202
18 -11 33 -24 33 -29 0 -5 -15 -18 -33 -29 -52 -32 -148 -135 -189 -203 -21
-33 -51 -98 -68 -142 -54 -144 -145 -230 -271 -260 l-27 -6 24 76 c13 41 36
132 51 202 25 116 27 147 27 352 1 146 -4 251 -12 300 -17 91 -56 250 -76 308
l-15 42 27 -6 c15 -4 46 -15 69 -24z m-3508 -1530 c166 -296 425 -555 723
-722 59 -33 105 -64 102 -69 -11 -19 -84 -49 -140 -58 -78 -12 -149 0 -250 44
-45 19 -108 42 -140 50 -64 17 -213 22 -283 10 l-43 -7 7 43 c12 70 7 219 -10
283 -8 32 -31 95 -50 140 -44 101 -56 172 -44 250 10 63 47 146 64 146 1 0 30
-50 64 -110z m3381 61 c27 -54 40 -145 29 -211 -5 -30 -24 -91 -44 -136 -19
-45 -42 -108 -50 -140 -17 -64 -22 -213 -10 -283 l7 -43 -43 7 c-70 12 -219 7
-283 -10 -32 -8 -95 -31 -140 -50 -101 -44 -172 -56 -250 -44 -57 10 -129 39
-141 59 -3 5 18 21 47 36 313 158 603 440 780 756 33 59 64 105 69 102 5 -3
18 -23 29 -43z m-2102 -988 c116 -25 147 -27 352 -27 146 -1 251 4 300 12 91
17 250 56 308 76 l42 15 -6 -27 c-30 -130 -112 -215 -262 -272 -44 -17 -107
-48 -141 -68 -65 -40 -165 -132 -203 -188 -13 -18 -26 -34 -30 -34 -3 0 -16
15 -27 33 -32 52 -135 148 -203 189 -33 21 -98 51 -142 68 -144 54 -230 145
-260 271 l-6 27 76 -24 c41 -13 132 -36 202 -51z"/>
<path d="M2351 4129 c-114 -15 -291 -64 -399 -110 -202 -86 -348 -185 -507
-344 -228 -228 -368 -486 -437 -808 -30 -140 -32 -443 -4 -592 105 -562 500
-1019 1045 -1209 159 -55 275 -76 456 -83 230 -8 420 22 618 99 115 44 142 84
96 142 -27 35 -53 33 -169 -8 -107 -38 -285 -79 -323 -74 -24 3 -18 16 150
296 l176 292 334 0 c384 0 355 13 251 -110 -62 -72 -151 -156 -231 -215 -42
-31 -53 -58 -38 -98 13 -33 50 -52 84 -43 55 14 241 183 342 311 243 311 358
664 342 1054 -17 404 -173 757 -462 1046 -226 226 -488 368 -802 435 -115 25
-403 35 -522 19z m57 -171 c-8 -13 -88 -146 -178 -295 l-163 -273 -334 0
c-384 0 -356 -13 -249 112 145 170 370 324 586 403 92 33 262 73 314 74 37 1
38 0 24 -21z m447 2 c309 -68 588 -233 783 -460 104 -122 133 -110 -251 -110
l-334 0 -163 273 c-90 149 -170 282 -178 295 -14 21 -13 22 19 22 19 0 75 -9
124 -20z m-132 -310 l156 -260 -319 0 -319 0 156 260 c86 143 159 260 163 260
4 0 77 -117 163 -260z m-753 -416 c0 -17 -313 -524 -320 -517 -8 9 -281 466
-299 501 l-12 22 316 0 c173 0 315 -3 315 -6z m1199 -328 c111 -184 201 -339
201 -346 0 -7 -90 -162 -201 -346 l-200 -334 -409 0 -409 0 -200 334 c-111
184 -201 339 -201 346 0 7 90 162 201 346 l200 334 409 0 409 0 200 -334z
m600 312 c-18 -35 -291 -492 -299 -501 -7 -7 -320 500 -320 517 0 3 142 6 315
6 l316 0 -12 -22z m-2362 -388 l162 -270 -162 -270 c-89 -149 -165 -270 -169
-270 -10 0 -63 169 -85 270 -26 120 -26 420 0 540 22 101 75 270 85 270 4 0
80 -121 169 -270z m2507 193 c74 -224 95 -471 57 -691 -19 -115 -76 -312 -90
-312 -3 0 -79 122 -168 270 l-162 270 162 270 c89 149 165 270 169 270 3 0 18
-35 32 -77z m-2100 -872 c86 -143 156 -262 156 -265 0 -3 -142 -6 -316 -6
-174 0 -314 4 -312 9 6 15 311 521 314 521 1 0 73 -117 158 -259z m1815 -9
c83 -139 151 -255 151 -258 0 -2 -142 -4 -315 -4 -173 0 -315 3 -315 6 0 17
313 524 320 517 4 -4 75 -122 159 -261z m-1386 -704 c200 -333 196 -313 45
-283 -258 53 -478 162 -678 338 -72 62 -178 180 -204 225 -6 9 62 12 327 12
l334 0 176 -292z m482 35 c-85 -142 -159 -258 -165 -258 -6 0 -80 116 -165
258 l-154 257 319 0 319 0 -154 -257z"/>
</g>
</svg>
