<?xml version="1.0" standalone="no"?>
<!DOCTYPE svg PUBLIC "-//W3C//DTD SVG 20010904//EN"
 "http://www.w3.org/TR/2001/REC-SVG-20010904/DTD/svg10.dtd">
<svg version="1.0" xmlns="http://www.w3.org/2000/svg"
 width="512.000000pt" height="512.000000pt" viewBox="0 0 512.000000 512.000000"
 preserveAspectRatio="xMidYMid meet">

<g transform="translate(0.000000,512.000000) scale(0.100000,-0.100000)"
fill="#000000" stroke="none">
<path d="M970 3903 c-20 -7 -59 -44 -73 -68 -7 -12 -14 -85 -17 -175 l-5 -155
-195 -6 c-107 -3 -196 -6 -198 -7 -2 -1 -9 -16 -16 -34 -19 -44 -7 -80 35
-101 31 -16 73 -17 537 -15 l504 3 24 28 c29 34 31 66 3 101 l-20 26 -255 0
-254 0 0 125 0 125 1325 0 1325 0 -2 -1042 -3 -1043 -583 -3 c-461 -2 -583 0
-587 10 -46 134 -88 198 -170 260 -130 99 -316 114 -466 37 -91 -46 -174 -147
-211 -254 l-17 -50 -305 -3 -306 -2 0 230 0 230 135 0 c122 0 137 2 155 20 30
30 30 83 -1 115 -19 20 -33 20 -560 20 l-541 0 -24 -28 c-29 -34 -31 -66 -3
-101 l20 -26 330 0 329 0 0 -284 c0 -264 1 -285 19 -307 l19 -24 368 -5 367
-5 12 -40 c46 -156 183 -276 350 -306 201 -37 426 100 483 293 l17 58 726 0
725 0 13 -50 c28 -108 121 -214 234 -265 236 -109 510 9 596 255 l19 55 94 5
c104 6 135 19 169 73 19 30 20 47 17 327 -3 290 -3 296 -28 355 -14 33 -126
240 -248 460 -234 421 -264 464 -338 484 -24 7 -156 11 -341 11 l-302 0 -3
303 c-3 298 -3 302 -26 335 -48 67 59 62 -1459 61 -758 0 -1385 -3 -1393 -6z
m3496 -872 c33 -38 455 -808 469 -855 11 -38 15 -107 15 -283 l0 -234 -61 3
-60 3 -17 50 c-76 224 -302 348 -527 290 -145 -38 -268 -157 -310 -300 -12
-40 -12 -40 -69 -43 l-56 -3 0 696 0 695 300 0 c281 0 301 -1 316 -19z m-2297
-1187 c62 -18 132 -78 163 -138 29 -56 35 -150 14 -213 -22 -66 -76 -127 -140
-160 -62 -32 -167 -36 -229 -9 -58 25 -122 90 -147 148 -27 64 -25 171 5 233
42 85 147 153 241 154 22 1 64 -6 93 -15z m2324 -4 c190 -71 239 -327 89 -462
-58 -52 -105 -71 -182 -71 -155 -1 -268 104 -278 257 -5 89 19 153 82 215 78
77 186 100 289 61z"/>
<path d="M925 3168 c-43 -25 -44 -33 -45 -285 l0 -243 -120 0 c-115 0 -122 -1
-145 -25 -33 -32 -33 -78 0 -110 l24 -25 734 0 c728 0 735 0 761 21 37 29 37
89 0 118 -26 21 -36 21 -560 21 l-534 0 0 241 0 241 -29 29 c-31 31 -54 35
-86 17z"/>
<path d="M22 3044 c-34 -24 -31 -95 5 -124 26 -20 34 -21 331 -18 l304 3 19
24 c26 32 25 82 -4 109 -23 22 -29 22 -328 22 -259 0 -308 -2 -327 -16z"/>
</g>
</svg>
