<?xml version="1.0" encoding="iso-8859-1"?>
<!-- Uploaded to: SVG Repo, www.svgrepo.com, Generator: SVG Repo Mixer Tools -->
<svg fill="#000000" height="800px" width="800px" version="1.1" id="Layer_1" xmlns="http://www.w3.org/2000/svg" xmlns:xlink="http://www.w3.org/1999/xlink" 
	 viewBox="0 0 254.98 254.98" xml:space="preserve">
<g>
	<g>
		<g>
			<path d="M95.352,5.208c5.732,5.964,6.308,15.016,1.352,21.06c-4.172,5.088-4.976,10.976-2.384,17.492
				c0.096,0.248,0.22,0.488,0.348,0.728l1.98,3.98l-0.012-4.148c-0.024-4.988,2.456-9.044,7.576-12.408
				c1.036-0.684,1.956-1.472,2.952-2.324c2.34-2,3.636-4.568,3.848-7.628c0.636-9.164-5.756-16.84-17.104-20.54L89.552,0
				l4.304,3.832C94.404,4.308,94.904,4.74,95.352,5.208z M109.088,21.828c-0.18,2.56-1.22,4.62-3.28,6.388
				c-0.848,0.724-1.724,1.472-2.656,2.088c-4.276,2.808-6.904,6.088-7.936,9.952c-1.148-4.74-0.16-8.936,2.984-12.768
				c5.236-6.376,5.004-15.712-0.336-22.348C103.008,7.74,109.708,12.872,109.088,21.828z"/>
			<path d="M125.26,63.88c0.532,2.268-0.416,4.284-1.636,6.316l-1.456,2.488l2.496-0.896c3.076-1.1,7.32-3.064,8.704-7.352
				c0.66-2.044,0.112-4.072-0.436-5.608c-1.108-3.104-1.384-5.844-0.836-8.38c0.6-2.772,1.768-5.456,6.168-6.308l4.896-0.948
				l-4.896-0.944c-5.56-1.064-11.9,0.96-14.468,4.616c-2.552,3.632-2.736,7.64-0.548,11.912
				C124.276,60.784,124.912,62.404,125.26,63.88z M125.368,47.976c1.524-2.172,4.836-3.668,8.352-4.004
				c-2.232,1.632-3.06,3.988-3.512,6.076c-0.624,2.896-0.332,5.984,0.908,9.436c0.664,1.856,0.792,3.204,0.416,4.364
				c-0.684,2.124-2.276,3.752-5.056,5.108c0.72-1.632,1.14-3.472,0.66-5.508c-0.38-1.632-1.072-3.396-2.172-5.544
				C123.1,54.268,123.232,51.02,125.368,47.976z"/>
			<path d="M177.092,185.948c0.364-0.004,0.732-0.012,1.1-0.028c10.744-0.452,19.248-7.52,19.608-7.824l1.364-1.148l-1.424-1.072
				c-0.368-0.272-9.084-6.62-19.756-6.184c-8.864,0.376-16.128,5.204-18.628,7.068c-0.304-8.812-2.22-17.248-6.52-24.552
				c0.928-0.816,1.544-1.804,1.78-2.908c0.368-1.716-0.136-3.648-1.504-5.748c-2.62-4.024-9.764-6.328-10.068-6.424
				c-0.404-0.124-0.844-0.068-1.2,0.164s-0.588,0.608-0.636,1.028c-0.04,0.316-0.86,7.74,1.764,11.764
				c1.932,2.972,3.98,3.824,5.692,3.824c0.624,0,1.18-0.144,1.692-0.308c3.716,6.368,5.52,13.656,6.012,21.308
				c-1.276-2.44-3.468-5.7-6.872-7.74c-5.864-3.504-12.808-1.868-13.096-1.8l-1.48,0.364l0.468,1.448
				c0.044,0.14,0.608,1.792,1.764,3.848c-5.852-2.824-13.668-4.808-22.076-5.844l7.708-80.868c-0.032,0.024-0.072,0.036-0.104,0.056
				c0.032-0.128,0.12-0.236,0.128-0.368c0.124-1.792-1.848-3.3-4.584-3.5c-2.592-0.188-4.564,0.884-4.92,2.492
				c-0.02-0.036-0.052-0.056-0.072-0.092l-0.036,0.396c0,0.004-0.004,0.008-0.004,0.012l-0.004,0.004
				c0,0.008,0.004,0.012,0.004,0.02l-7.74,81.228c-1.62-0.116-3.244-0.224-4.868-0.224c-0.832,0-1.644,0.04-2.46,0.072
				L87.996,52.376c-0.064,0.092-0.156,0.144-0.228,0.228c0.072-0.292,0.2-0.576,0.18-0.876c-0.08-1.028-0.724-1.96-1.776-2.556
				c-0.92-0.52-2.08-0.752-3.292-0.668c-1.204,0.084-2.324,0.492-3.16,1.136c-0.96,0.74-1.468,1.756-1.396,2.784
				c0.004,0.056,0.044,0.096,0.048,0.152c-0.012-0.004-0.028-0.004-0.04-0.008L88.508,165.14
				c-18.172,2.176-31.288,8.752-32.26,16.884c-0.148,0.268-0.26,0.556-0.276,0.88c-0.092,2.192-0.156,4.4-0.156,6.64
				c0,30.044,9.28,42.868,21.668,48.256c-0.76,1.252-1.04,2.42-1.04,3.312c0,7.308,12.708,10.58,25.3,10.58
				c12.592,0,25.304-3.272,25.304-10.58c0-0.908-0.288-2.108-1.092-3.392c0.084-0.036,0.168-0.076,0.256-0.112
				c0.084,0.176,0.212,0.336,0.38,0.452c3.152,2.208,6.192,3.316,9.076,3.316c1.16,0,2.292-0.18,3.4-0.54
				c3.724-1.212,6.352-4.224,8.056-6.904c0.904,14.636,18.588,20.924,18.788,20.992c0.112,0.04,0.228,0.056,0.348,0.056
				c0.188,0,0.38-0.052,0.544-0.152c0.272-0.16,0.464-0.432,0.524-0.744c1.44-7.184-1.448-13.096-5.124-17.48
				c4.276,2,9.26,3.644,14.208,3.644c4.72,0,9.388-1.488,13.324-5.548c0.32-0.332,0.408-0.824,0.224-1.248
				c-0.284-0.64-6.756-14.332-31.856-9.628c10.28-6.508,16.068-13,17.112-19.36c0.864-5.284-1.948-8.396-2.072-8.524
				c-0.216-0.24-0.516-0.36-0.856-0.352c-7.52,0.344-12.984,5.684-16.832,11.792c2.212-8.7,3.808-17.968,3.916-27.004
				C161.748,181.94,168.636,185.948,177.092,185.948z M163.28,179.376l4.992-0.216l3.404,3.32
				C168.256,181.736,165.332,180.468,163.28,179.376z M178.076,183.088c-1.132,0.048-2.228-0.016-3.304-0.12l-4.016-3.916
				l5.332-0.232c0.04,0.076,0.032,0.168,0.1,0.228l3.932,3.836C179.444,182.972,178.768,183.06,178.076,183.088z M182.316,182.496
				l-3.872-3.776l4.88-0.212l2.916,2.844C185.004,181.808,183.692,182.196,182.316,182.496z M188.088,180.62l-2.276-2.216
				l7.056-0.304C191.588,178.892,189.972,179.796,188.088,180.62z M178.1,172.528c6.164-0.28,11.62,2.012,14.86,3.752l-9.296,0.4
				h-0.004l-20.436,0.884C166.448,175.544,171.916,172.788,178.1,172.528z M151.84,148.704c-0.144,0.684-0.604,1.268-1.404,1.78
				c-1.148,0.744-2.932,1.356-5.088-1.948c-1.308-2.008-1.516-5.636-1.444-8.068c2.26,0.932,5.516,2.608,6.832,4.632
				C151.66,146.52,152.044,147.768,151.84,148.704z M148.04,169.6c3.4,2.036,5.46,5.728,6.416,7.82
				c-2.132,0.228-5.992,0.256-9.328-1.736c-3.4-2.036-5.464-5.728-6.416-7.82C140.836,167.624,144.708,167.608,148.04,169.6z
				 M118.06,82.768c1.7,0.124,2.496,0.908,2.488,1.076c-0.012,0.168-0.908,0.828-2.616,0.708c-1.692-0.12-2.488-0.9-2.48-1.076
				C115.468,83.296,116.344,82.632,118.06,82.768z M115.204,86.084c0.728,0.368,1.564,0.656,2.56,0.728
				c0.2,0.012,0.396,0.02,0.588,0.02c0.712,0,1.352-0.12,1.94-0.3l-1.176,12.356l-5.464,3.484L115.204,86.084z M113.376,105.236
				l5.464-3.484l-0.296,3.14c-0.068,0.028-0.14-0.004-0.204,0.036l-5.252,3.344L113.376,105.236z M112.828,111.028
				c0.096-0.028,0.2-0.028,0.292-0.084l5.164-3.288l-7.372,77.328c-0.04,0.524-0.32,1.008-0.792,1.364
				c-0.52,0.388-1.172,0.584-1.908,0.524c-0.712-0.052-1.352-0.332-1.808-0.792c-0.416-0.42-0.624-0.936-0.588-1.436
				L112.828,111.028z M80.588,52.264c-0.028-0.368,0.352-0.704,0.516-0.828c0.48-0.372,1.184-0.616,1.936-0.668
				c0.108-0.008,0.216-0.012,0.32-0.012c0.636,0,1.244,0.14,1.692,0.396c0.184,0.1,0.604,0.376,0.628,0.744
				c0.028,0.364-0.352,0.7-0.516,0.828c-0.48,0.372-1.184,0.616-1.936,0.668C81.776,53.492,80.632,52.872,80.588,52.264z
				 M80.856,55.28c0.62,0.228,1.292,0.388,2.044,0.388c0.16,0,0.324-0.004,0.492-0.016c0.948-0.068,1.804-0.38,2.552-0.808
				L97.32,180.712c0.056,0.768-0.184,1.5-0.668,2.06c-0.436,0.508-1.036,0.812-1.684,0.86c-0.648,0.044-1.28-0.168-1.788-0.608
				c-0.564-0.488-0.9-1.176-0.956-1.964L80.856,55.28z M88.868,169.116l1.096,12.128c0.1,1.372,0.716,2.612,1.736,3.496
				c0.88,0.76,1.964,1.168,3.092,1.168c0.112,0,0.232-0.004,0.344-0.012c1.248-0.088,2.4-0.672,3.236-1.64
				c0.884-1.02,1.312-2.336,1.212-3.728l-1.096-12.136c0.696-0.02,1.384-0.052,2.1-0.052c1.552,0,3.02,0.104,4.488,0.2
				l-1.516,15.908c-0.088,1.188,0.352,2.332,1.24,3.224c0.844,0.848,2,1.368,3.252,1.456c0.132,0.008,0.264,0.012,0.396,0.012
				c1.116,0,2.18-0.344,3.036-0.988c1.008-0.752,1.604-1.824,1.692-2.988l1.528-16.036c17.184,2.08,28.444,8.028,28.816,13.572
				c-0.932,3.836-6.936,8.5-16.452,11.74c-6.872,1.932-15.54,3.184-25.444,3.184c-9.896,0-18.548-1.28-25.376-3.244
				c-8.864-3.052-14.62-7.332-16.032-11.008c-0.012-0.132-0.06-0.26-0.06-0.392C60.148,177.344,71.48,171.212,88.868,169.116z
				 M143.656,190.708c-0.02,2.152-0.096,4.188-0.212,6.144c-1.084-1.236-2.336-2.34-3.788-3.264
				C141.18,192.692,142.536,191.736,143.656,190.708z M59.824,190.448c3.46,3.332,9.188,6.136,16.444,8.104
				c7.472,2.376,16.328,3.82,25.476,3.82c9.448,0,18.556-1.548,26.172-4.064c2.516-0.696,4.872-1.492,7.024-2.388
				c-0.592,1.644-1.184,3.912-1.396,6.608c-7.912,3.792-19.404,6.256-32.032,6.256c-20.452,0-38.036-6.54-41.628-14.856
				C59.848,192.8,59.832,191.632,59.824,190.448z M101.744,247.688c-12.74,0-21.3-3.404-21.3-6.58c0-0.692,0.412-1.336,0.916-1.888
				c6.436,1.976,13.484,2.368,20.388,2.368c6.896,0,13.916-0.436,20.34-2.42c0.524,0.56,0.96,1.228,0.96,1.94
				C123.048,244.284,114.484,247.688,101.744,247.688z M101.744,237.584c-20.508,0-39.06-3.184-41.62-39.12
				c6.524,7.448,22.376,12.588,41.388,12.588c12.52,0,23.792-2.336,31.964-6.056c0.116,5.892,2.38,13.26,10.176,20.576
				c-4.936-0.532-9.06,0.196-12.148,2.412c-1.892,1.36-3.112,3.02-3.916,4.552C120.316,236.848,111.256,237.584,101.744,237.584z
				 M138.356,238.676c-2.968,0.964-6.292,0.268-9.876-2.076c0.304-1.368,1.32-4.612,4.368-6.788c3.112-2.216,7.524-2.752,13.06-1.68
				c0.044,0.724,0.316,1.404,0.716,2.032C145.396,232.732,142.684,237.268,138.356,238.676z M147.48,224.572
				c-0.128,0.108-0.288,0.164-0.408,0.288c-0.14,0.144-0.192,0.328-0.308,0.488c-15.624-13.296-10.8-26.692-9.052-30.316
				C148.872,201.292,147.92,219.84,147.48,224.572z M148.712,226.424c0.384-0.404,0.904-0.628,1.456-0.644c0.016,0,0.032,0,0.048,0
				c0.54,0,1.048,0.204,1.436,0.576c0.828,0.796,0.86,2.116,0.068,2.948c-0.784,0.824-2.104,0.864-2.94,0.064
				C147.948,228.576,147.92,227.256,148.712,226.424z M165.388,252.336c-4.068-1.676-16.684-7.948-16.132-20.308
				c0.32,0.072,0.636,0.18,0.96,0.18c0.928,0,1.816-0.372,2.588-0.96C157.252,234.168,166.684,241.684,165.388,252.336z
				 M187.512,233.696c-10.64,10-27.172-0.012-33.228-4.304c0.292-0.788,0.276-1.628,0.1-2.44
				C178.004,221.04,185.848,230.908,187.512,233.696z M171.82,197.868c0.576,0.836,1.732,2.996,1.2,6.224
				c-0.744,4.528-4.968,11.648-20.264,20.344c-0.596-0.428-1.26-0.688-1.952-0.792C152.892,216.568,159.296,198.944,171.82,197.868z
				 M149.936,216.428c-0.204-4.288-0.96-9.356-2.944-13.884c0.44-3.936,0.684-8.244,0.684-13.008c0-2.136-0.064-4.24-0.156-6.332
				c0-0.076,0.028-0.144,0.028-0.22c0-1.22-0.26-2.388-0.744-3.504c2.016,0.644,4.008,0.884,5.672,0.884
				c2.02,0,3.5-0.276,4.036-0.392C156.436,192.36,153.428,205.28,149.936,216.428z"/>
		</g>
	</g>
</g>
</svg>