<?xml version="1.0" standalone="no"?>
<!DOCTYPE svg PUBLIC "-//W3C//DTD SVG 20010904//EN"
 "http://www.w3.org/TR/2001/REC-SVG-20010904/DTD/svg10.dtd">
<svg version="1.0" xmlns="http://www.w3.org/2000/svg"
 width="512.000000pt" height="512.000000pt" viewBox="0 0 512.000000 512.000000"
 preserveAspectRatio="xMidYMid meet">

<g transform="translate(0.000000,512.000000) scale(0.100000,-0.100000)"
fill="#000000" stroke="none">
<path d="M2450 5104 c-160 -43 -280 -176 -311 -348 -10 -54 -15 -65 -28 -60
-68 30 -125 43 -184 44 -160 0 -307 -93 -376 -239 l-26 -56 -3 -642 c-1 -354
-6 -643 -11 -643 -4 0 -16 10 -27 22 -33 37 -159 114 -231 141 -84 31 -216 52
-265 43 -19 -3 -46 -18 -59 -32 l-24 -26 0 -896 c0 -689 3 -917 13 -982 58
-374 209 -676 472 -940 136 -136 261 -227 425 -310 477 -239 1002 -240 1480
-4 170 84 295 174 430 309 258 258 406 544 472 910 11 67 17 181 20 443 3 194
2 369 -2 388 -15 83 -107 114 -165 56 l-28 -28 -5 -380 c-5 -427 -11 -476 -78
-679 -164 -493 -573 -855 -1092 -967 -146 -31 -428 -31 -570 0 -292 64 -534
193 -737 392 -216 212 -352 468 -417 786 -14 68 -16 195 -20 917 l-4 838 28
-6 c50 -11 167 -73 214 -115 61 -52 116 -136 147 -224 25 -68 26 -82 30 -361
l4 -290 26 -28 c38 -40 97 -38 138 4 l29 30 5 1117 c5 1103 5 1117 25 1152 70
119 257 134 338 27 48 -64 47 -53 47 -909 l0 -810 34 -34 c22 -22 44 -34 60
-34 34 0 81 24 92 47 5 10 11 471 14 1024 l5 1006 30 49 c105 168 344 142 410
-45 13 -38 15 -171 15 -1013 0 -1053 -2 -1010 55 -1036 41 -19 72 -14 107 17
l33 29 5 819 c5 805 5 819 26 858 64 123 246 141 338 33 22 -25 39 -59 45 -90
7 -32 11 -319 11 -832 0 -774 0 -784 20 -809 43 -55 130 -42 162 23 16 32 18
81 18 577 0 320 4 552 10 567 5 14 26 43 46 65 90 101 251 82 321 -37 l28 -47
5 -417 5 -418 26 -26 c46 -46 124 -32 154 27 14 26 16 84 13 447 -3 404 -4
419 -26 472 -84 208 -312 315 -517 241 -32 -11 -61 -21 -62 -21 -2 0 -3 30 -3
68 -1 159 -34 264 -112 348 -126 137 -306 171 -489 90 -13 -5 -18 5 -28 60
-47 254 -289 413 -531 348z"/>
<path d="M4049 2721 c-38 -39 -39 -87 -3 -130 21 -25 33 -31 66 -31 53 0 77
14 94 57 12 27 13 42 4 69 -23 70 -108 88 -161 35z"/>
<path d="M2421 2445 c-255 -56 -475 -208 -599 -416 -38 -63 -24 -126 35 -154
43 -21 86 -12 113 23 160 211 234 270 405 327 240 81 518 16 703 -163 l47 -46
-30 -6 c-42 -9 -73 -27 -85 -50 -18 -34 -12 -87 14 -117 l24 -28 167 -3 c258
-5 255 -8 255 235 l0 173 -28 31 c-55 61 -147 34 -167 -50 l-11 -42 -19 22
c-77 86 -252 194 -385 237 -137 44 -310 54 -439 27z"/>
<path d="M2523 1926 c-25 -22 -28 -31 -31 -105 -2 -45 -6 -81 -8 -81 -2 0 -26
14 -55 31 -67 39 -99 45 -137 25 -38 -20 -52 -44 -52 -88 0 -45 20 -71 85
-108 30 -17 55 -35 55 -38 0 -4 -23 -20 -50 -35 -71 -40 -90 -63 -90 -110 0
-29 7 -45 29 -68 41 -40 86 -39 162 6 l59 34 0 -70 c0 -80 16 -119 55 -137 33
-15 57 -15 90 0 39 18 55 57 55 137 l0 70 59 -34 c76 -45 121 -46 162 -6 55
56 35 122 -52 172 -32 19 -59 37 -59 41 0 3 24 20 54 37 64 36 86 63 86 109 0
44 -14 68 -52 88 -38 20 -70 14 -137 -25 -29 -17 -53 -31 -55 -31 -2 0 -6 36
-8 81 -3 74 -6 83 -31 105 -19 16 -40 24 -67 24 -27 0 -48 -8 -67 -24z"/>
<path d="M1774 1300 c-49 -19 -54 -42 -54 -233 0 -199 5 -217 65 -237 67 -22
135 34 135 111 0 19 8 14 58 -33 74 -70 132 -109 234 -158 128 -61 221 -82
368 -83 260 -1 454 78 641 263 104 102 159 185 159 238 0 44 -46 92 -89 92
-50 0 -78 -20 -121 -86 -76 -117 -211 -222 -349 -270 -248 -86 -512 -31 -705
148 -58 54 -59 57 -34 58 60 1 108 46 108 100 0 33 -26 75 -55 88 -30 14 -328
16 -361 2z"/>
</g>
</svg>
