<?xml version="1.0" standalone="no"?>
<!DOCTYPE svg PUBLIC "-//W3C//DTD SVG 20010904//EN"
 "http://www.w3.org/TR/2001/REC-SVG-20010904/DTD/svg10.dtd">
<svg version="1.0" xmlns="http://www.w3.org/2000/svg"
 width="500.000000pt" height="500.000000pt" viewBox="0 0 500.000000 500.000000"
 preserveAspectRatio="xMidYMid meet">

<g transform="translate(0.000000,500.000000) scale(0.100000,-0.100000)"
fill="#000000" stroke="none">
<path d="M1387 4276 c-59 -16 -111 -64 -211 -197 -163 -215 -271 -459 -328
-739 -20 -99 -23 -143 -22 -325 0 -187 3 -224 27 -336 62 -296 197 -573 385
-794 l60 -71 -14 -59 c-31 -132 -53 -286 -44 -310 19 -50 84 -70 127 -40 22
16 24 20 59 215 63 350 240 744 475 1056 98 130 299 337 427 439 395 317 811
495 1306 560 151 19 299 20 315 1 17 -20 39 -199 53 -424 19 -305 -9 -697 -62
-887 -46 -164 -133 -351 -236 -505 -337 -506 -907 -811 -1512 -810 -157 0
-432 38 -432 59 0 5 26 25 58 46 405 269 811 681 1106 1125 164 245 178 279
131 325 -27 28 -80 34 -107 13 -9 -7 -50 -69 -93 -138 -435 -707 -1122 -1287
-1893 -1597 -67 -27 -102 -61 -102 -100 0 -28 50 -83 75 -83 43 0 411 169 565
260 l54 32 86 -25 c208 -62 372 -82 624 -74 220 6 360 31 561 98 614 204 1090
703 1270 1329 81 283 98 837 39 1275 -18 132 -43 188 -103 230 -37 26 -53 30
-123 34 -173 7 -490 -38 -714 -103 -329 -96 -694 -282 -932 -476 -35 -28 -65
-50 -67 -48 -1 2 -10 46 -18 99 -56 335 -244 644 -519 849 -127 96 -190 118
-271 96z m133 -201 c157 -104 305 -273 385 -438 75 -156 109 -285 121 -459 l7
-96 -92 -97 c-50 -53 -132 -151 -181 -216 -90 -120 -90 -120 -90 -82 -2 241
-86 773 -129 816 -24 25 -81 28 -106 7 -33 -27 -34 -53 -9 -181 54 -270 66
-380 71 -681 l5 -287 -50 -113 c-27 -62 -60 -141 -72 -175 -13 -35 -25 -63
-29 -63 -3 0 -28 31 -56 68 -150 203 -245 422 -293 677 -26 139 -23 417 6 562
53 268 175 521 352 731 34 40 68 72 77 72 8 0 46 -20 83 -45z"/>
</g>
</svg>
