<?xml version="1.0" standalone="no"?>
<!DOCTYPE svg PUBLIC "-//W3C//DTD SVG 20010904//EN"
 "http://www.w3.org/TR/2001/REC-SVG-20010904/DTD/svg10.dtd">
<svg version="1.0" xmlns="http://www.w3.org/2000/svg"
 width="512.000000pt" height="513.000000pt" viewBox="0 0 512.000000 513.000000"
 preserveAspectRatio="xMidYMid meet">

<g transform="translate(0.000000,513.000000) scale(0.100000,-0.100000)"
fill="#000000" stroke="none">
<path d="M2460 5084 c-95 -68 -305 -285 -382 -394 -158 -223 -269 -495 -328
-801 l-11 -57 -77 30 c-190 74 -446 116 -642 105 -124 -7 -303 -40 -335 -61
-48 -31 -79 -203 -78 -431 0 -189 15 -293 63 -451 17 -53 30 -100 30 -105 0
-5 -32 -9 -70 -9 -135 0 -322 -38 -483 -97 -143 -52 -140 -47 -134 -263 7
-248 44 -400 147 -615 201 -416 606 -734 1047 -820 43 -9 88 -18 101 -21 21
-4 22 -8 22 -124 l0 -120 -27 -6 c-107 -23 -204 -79 -255 -146 -74 -97 -108
-223 -89 -330 30 -173 152 -305 316 -344 89 -21 2501 -21 2590 0 211 50 352
261 315 473 -30 178 -162 312 -338 345 l-62 12 0 116 0 116 93 17 c205 36 424
124 588 234 327 222 559 564 639 946 28 130 29 456 3 480 -66 59 -419 147
-593 147 -38 0 -70 4 -70 9 0 5 13 52 30 105 48 158 63 262 63 451 1 228 -30
400 -78 431 -32 21 -211 54 -335 61 -196 11 -452 -31 -642 -105 l-77 -30 -11
57 c-59 306 -170 578 -328 801 -77 109 -287 326 -382 394 -54 39 -71 46 -110
46 -39 0 -56 -7 -110 -46z m177 -222 c143 -119 304 -325 392 -501 110 -219
171 -456 189 -739 8 -115 10 -125 35 -150 38 -37 96 -37 135 1 22 22 28 39 32
89 l5 62 91 37 c208 87 432 121 651 100 71 -7 132 -16 137 -21 27 -26 42 -259
27 -403 -43 -394 -253 -757 -564 -974 l-75 -52 -37 56 c-116 175 -299 280
-527 304 -57 5 -104 12 -106 14 -2 2 12 26 32 54 74 108 101 226 94 409 -4
102 -10 140 -30 193 -36 97 -74 156 -142 224 -109 107 -252 165 -406 165 -154
0 -297 -58 -406 -165 -68 -68 -106 -127 -142 -224 -20 -53 -26 -91 -30 -193
-7 -183 20 -301 94 -408 19 -27 34 -51 34 -54 0 -2 -39 -7 -87 -10 -167 -13
-283 -49 -388 -122 -55 -37 -162 -143 -201 -199 l-20 -29 -66 47 c-36 26 -101
82 -146 126 -230 227 -368 512 -403 838 -16 149 0 376 28 404 4 4 65 13 136
20 219 21 443 -13 651 -100 l91 -37 5 -62 c4 -50 10 -67 33 -89 38 -38 96 -38
134 -1 25 25 27 35 35 150 10 152 23 240 54 369 66 275 207 541 390 738 79 85
187 181 204 181 5 0 35 -22 67 -48z m93 -1368 c82 -39 144 -101 184 -184 30
-63 31 -69 31 -205 0 -136 -1 -142 -31 -205 -37 -78 -103 -146 -181 -186 -53
-27 -67 -29 -163 -29 -96 0 -110 2 -163 29 -78 40 -144 108 -181 186 -30 63
-31 69 -31 205 0 136 1 142 31 205 70 144 195 222 354 217 72 -2 95 -7 150
-33z m-1902 -830 c99 -167 280 -363 435 -469 83 -57 87 -62 81 -90 -3 -16 -8
-204 -11 -417 -4 -316 -7 -388 -18 -388 -66 0 -253 59 -370 117 -219 108 -426
297 -548 499 -114 190 -187 435 -187 630 l0 80 68 21 c133 42 245 59 410 61
l112 2 28 -46z m3882 22 c41 -8 108 -25 148 -37 l72 -23 0 -80 c0 -249 -108
-546 -276 -756 -196 -247 -461 -413 -767 -479 -53 -12 -99 -21 -102 -21 -3 0
-5 165 -6 368 0 202 -4 388 -8 414 l-8 46 61 39 c188 121 374 314 489 508 l28
48 147 -6 c81 -3 181 -12 222 -21z m-1489 -235 c93 -31 141 -61 204 -125 74
-74 111 -138 136 -235 18 -69 19 -116 19 -658 l0 -583 -100 0 -100 0 0 305 c0
327 -4 361 -50 385 -42 23 -92 15 -122 -19 l-28 -31 0 -320 0 -320 -622 2
-623 3 -5 537 -5 537 -23 23 c-17 17 -34 23 -66 23 -53 0 -82 -22 -96 -74 -6
-22 -10 -236 -10 -543 l0 -508 -100 0 -100 0 3 608 c3 589 3 609 24 663 31 84
51 119 99 175 56 66 138 122 222 151 67 22 68 22 678 23 572 0 614 -1 665 -19z
m-728 -1839 c-11 -24 -18 -81 -22 -168 -6 -122 -8 -133 -33 -166 -53 -70 -40
-68 -595 -68 -329 0 -512 4 -538 11 -55 15 -127 91 -144 152 -30 105 21 211
124 258 37 17 79 19 632 19 l592 0 -16 -38z m1362 19 c103 -47 154 -153 124
-258 -17 -61 -89 -137 -144 -152 -27 -7 -231 -11 -621 -11 l-581 0 18 52 c13
37 18 83 19 155 0 109 8 144 43 182 46 50 47 50 592 50 474 1 513 -1 550 -18z"/>
<path d="M3235 1968 c-77 -42 -71 -151 10 -178 69 -23 128 19 128 91 0 73 -77
121 -138 87z"/>
</g>
</svg>
