<?xml version="1.0" standalone="no"?>
<!DOCTYPE svg PUBLIC "-//W3C//DTD SVG 20010904//EN"
 "http://www.w3.org/TR/2001/REC-SVG-20010904/DTD/svg10.dtd">
<svg version="1.0" xmlns="http://www.w3.org/2000/svg"
 width="500.000000pt" height="500.000000pt" viewBox="0 0 500.000000 500.000000"
 preserveAspectRatio="xMidYMid meet">

<g transform="translate(0.000000,500.000000) scale(0.100000,-0.100000)"
fill="#000000" stroke="none">
<path d="M2890 4809 c-192 -173 -260 -249 -260 -292 0 -46 44 -97 243 -281
l211 -197 95 93 c370 359 361 349 361 406 0 16 -8 40 -19 53 -22 29 -408 393
-421 397 -4 2 -99 -79 -210 -179z"/>
<path d="M2204 4613 c-25 -127 -25 -320 0 -413 54 -202 140 -351 300 -518 106
-111 189 -173 311 -233 157 -76 243 -93 465 -93 204 0 308 17 485 75 115 38
335 144 427 206 102 68 254 219 261 260 16 86 -47 166 -285 360 -42 35 -98 87
-125 117 l-48 55 -65 -81 c-172 -215 -426 -367 -689 -413 -105 -19 -166 -19
-261 -1 -178 35 -324 116 -481 268 -125 122 -182 218 -234 398 -16 52 -31 98
-35 103 -3 4 -15 -37 -26 -90z"/>
<path d="M1540 3764 c-14 -3 -65 -12 -113 -20 -133 -22 -297 -78 -452 -155
-237 -118 -344 -206 -331 -273 7 -32 307 -615 318 -616 4 0 51 30 105 66 440
298 734 371 975 242 86 -46 122 -101 126 -193 6 -116 -41 -187 -161 -243 -211
-100 -373 -113 -671 -52 -78 15 -142 27 -144 25 -2 -1 4 -29 14 -61 13 -46 18
-120 23 -339 6 -263 8 -283 29 -330 30 -65 66 -102 127 -131 82 -39 164 -33
375 28 138 40 205 36 312 -15 136 -66 210 -174 227 -331 14 -132 -23 -249
-116 -367 -145 -186 -420 -282 -734 -259 -250 19 -436 108 -627 301 -236 238
-401 602 -479 1054 l-28 160 -46 3 -46 3 -14 -93 c-20 -131 -17 -433 4 -578
41 -266 116 -506 231 -735 93 -183 166 -285 301 -421 297 -300 719 -463 1102
-424 339 35 616 187 760 417 63 102 119 236 150 362 23 92 27 128 27 266 0
109 -5 189 -16 250 -20 108 -79 313 -107 375 -11 25 -21 50 -21 55 0 6 45 9
122 7 68 -2 156 1 196 8 41 6 76 9 79 7 2 -3 -11 -36 -31 -74 -32 -61 -37 -82
-46 -188 -35 -382 90 -764 308 -941 349 -284 809 -235 1173 126 214 213 317
456 360 855 26 240 -18 669 -92 898 -30 91 -101 237 -156 319 -99 149 -276
310 -418 380 -228 114 -490 115 -733 3 -103 -48 -185 -109 -280 -210 -105
-111 -182 -228 -289 -440 -97 -193 -135 -254 -206 -332 -114 -124 -194 -127
-444 -17 -24 11 -43 22 -43 26 0 3 22 22 49 42 63 46 169 159 220 234 203 299
235 629 90 929 -92 193 -251 318 -474 375 -63 16 -120 21 -270 23 -104 2 -201
1 -215 -1z m2611 -1056 c123 -42 198 -152 255 -378 62 -242 32 -532 -77 -741
-76 -146 -250 -304 -409 -370 -102 -43 -219 -63 -325 -55 -152 10 -254 53
-345 145 -82 83 -105 134 -140 310 -16 84 -30 154 -30 156 0 2 35 20 77 41 58
29 99 60 159 119 78 78 109 121 334 471 108 168 219 274 320 305 39 12 143 10
181 -3z"/>
</g>
</svg>
