<?xml version="1.0" standalone="no"?>
<!DOCTYPE svg PUBLIC "-//W3C//DTD SVG 20010904//EN"
 "http://www.w3.org/TR/2001/REC-SVG-20010904/DTD/svg10.dtd">
<svg version="1.0" xmlns="http://www.w3.org/2000/svg"
 width="500.000000pt" height="500.000000pt" viewBox="0 0 500.000000 500.000000"
 preserveAspectRatio="xMidYMid meet">

<g transform="translate(0.000000,500.000000) scale(0.100000,-0.100000)"
fill="#000000" stroke="none">
<path d="M1790 4982 c-19 -10 -44 -31 -55 -46 -20 -27 -20 -43 -25 -724 l-5
-697 -22 38 c-13 21 -89 163 -170 315 -464 875 -436 832 -532 832 -84 0 -141
-56 -141 -140 0 -43 -16 -10 404 -798 86 -161 156 -295 156 -297 0 -3 -83 -5
-185 -5 -208 0 -237 -6 -276 -61 l-24 -34 -3 -380 c-2 -347 -1 -383 15 -415
28 -54 75 -80 144 -80 43 0 59 -4 59 -13 0 -26 -99 -154 -152 -197 -97 -78
-237 -130 -353 -130 -265 -1 -497 -185 -550 -437 -22 -104 -21 -1093 1 -1200
47 -228 204 -405 428 -481 l81 -27 1250 -3 c881 -2 1273 0 1328 8 227 33 418
119 540 244 l49 49 24 -31 c34 -43 136 -118 216 -158 93 -47 196 -79 317 -99
96 -16 105 -16 146 0 76 28 96 74 115 263 17 163 -19 381 -79 479 l-20 31 72
43 c86 50 216 178 275 269 113 172 142 275 96 337 -40 53 -205 133 -361 174
-83 22 -243 30 -320 16 -40 -7 -43 -6 -43 16 0 41 -40 167 -74 235 -49 97
-130 207 -211 288 -106 106 -168 118 -258 49 -41 -31 -131 -129 -170 -186
l-16 -22 -40 32 c-81 64 -222 110 -341 111 -140 1 -280 61 -386 165 -56 56
-124 149 -124 171 0 2 25 4 56 4 65 0 111 19 139 58 19 26 20 45 23 417 2 375
2 391 -18 423 -41 66 -63 72 -272 72 -121 0 -188 4 -188 10 0 6 31 68 69 138
228 423 479 901 485 925 11 44 -10 102 -49 136 -30 26 -44 31 -87 31 -99 0
-86 19 -370 -520 -68 -129 -176 -331 -239 -447 l-114 -213 -5 689 c-5 677 -5
690 -26 717 -50 68 -122 90 -184 56z m715 -2012 l0 -195 -652 -3 -653 -2 0
200 0 200 653 -2 652 -3 0 -195z m-216 -556 c125 -320 411 -529 756 -550 124
-8 175 -26 231 -82 l46 -45 -7 -56 c-4 -31 -8 -57 -9 -58 -1 -1 -31 2 -67 8
-139 23 -347 -18 -516 -102 -56 -28 -114 -64 -127 -80 -31 -37 -42 -88 -27
-130 6 -18 11 -36 11 -40 0 -5 -502 -9 -1115 -9 l-1115 0 0 193 c0 214 8 248
73 315 54 56 99 73 221 83 240 19 406 90 560 238 106 102 164 192 230 354 l15
37 406 -2 406 -3 28 -71z m1505 -557 c52 -70 83 -135 102 -209 19 -74 14 -124
-23 -229 -24 -68 -26 -81 -15 -116 23 -77 100 -124 171 -103 18 5 58 30 89 56
90 74 131 89 242 89 73 0 112 -5 168 -24 39 -13 72 -26 72 -30 0 -14 -109
-143 -146 -172 -77 -62 -109 -72 -240 -78 -140 -7 -165 -18 -195 -87 -35 -78
-6 -145 85 -198 67 -39 131 -117 156 -189 19 -55 41 -257 28 -257 -18 0 -122
37 -163 57 -146 74 -213 180 -230 365 -4 45 -15 89 -26 107 -51 84 -187 84
-239 -1 -10 -18 -21 -60 -25 -102 -17 -188 -84 -296 -230 -369 -41 -20 -146
-57 -163 -57 -13 0 9 202 28 257 25 72 87 148 154 187 95 55 123 125 84 204
-33 67 -68 82 -193 82 -122 0 -176 21 -261 102 -51 48 -124 137 -124 152 0 3
33 16 73 28 54 17 96 23 167 23 111 0 152 -15 242 -89 31 -26 71 -51 89 -56
71 -21 148 26 171 103 11 35 9 48 -15 116 -15 42 -30 96 -33 122 -7 53 14 146
50 216 24 49 97 153 106 153 3 0 22 -24 44 -53z m-959 -935 c34 -31 92 -74
127 -95 l64 -37 -28 -58 c-45 -91 -69 -202 -71 -330 l-2 -112 -1155 2 -1155 3
-67 33 c-74 36 -132 95 -170 170 -22 44 -23 60 -26 265 l-3 217 1211 0 1212 0
63 -58z"/>
</g>
</svg>
