<svg width="134" height="106" fill="none" xmlns="http://www.w3.org/2000/svg"><circle cx="1.667" cy="104" r="1.667" transform="rotate(-90 1.667 104)" fill="#FDAEBAff"/><circle cx="16.333" cy="104" r="1.667" transform="rotate(-90 16.333 104)" fill="#FDAEBAff"/><circle cx="31" cy="104" r="1.667" transform="rotate(-90 31 104)" fill="#FDAEBAff"/><circle cx="45.667" cy="104" r="1.667" transform="rotate(-90 45.667 104)" fill="#FDAEBAff"/><circle cx="60.333" cy="104" r="1.667" transform="rotate(-90 60.333 104)" fill="#FDAEBAff"/><circle cx="88.667" cy="104" r="1.667" transform="rotate(-90 88.667 104)" fill="#FDAEBAff"/><circle cx="117.667" cy="104" r="1.667" transform="rotate(-90 117.667 104)" fill="#FDAEBAff"/><circle cx="74.667" cy="104" r="1.667" transform="rotate(-90 74.667 104)" fill="#FDAEBAff"/><circle cx="103" cy="104" r="1.667" transform="rotate(-90 103 104)" fill="#FDAEBAff"/><circle cx="132" cy="104" r="1.667" transform="rotate(-90 132 104)" fill="#FDAEBAff"/><circle cx="1.667" cy="89.333" r="1.667" transform="rotate(-90 1.667 89.333)" fill="#FDAEBAff"/><circle cx="16.333" cy="89.333" r="1.667" transform="rotate(-90 16.333 89.333)" fill="#FDAEBAff"/><circle cx="31" cy="89.333" r="1.667" transform="rotate(-90 31 89.333)" fill="#FDAEBAff"/><circle cx="45.667" cy="89.333" r="1.667" transform="rotate(-90 45.667 89.333)" fill="#FDAEBAff"/><circle cx="60.333" cy="89.334" r="1.667" transform="rotate(-90 60.333 89.334)" fill="#FDAEBAff"/><circle cx="88.667" cy="89.334" r="1.667" transform="rotate(-90 88.667 89.334)" fill="#FDAEBAff"/><circle cx="117.667" cy="89.334" r="1.667" transform="rotate(-90 117.667 89.334)" fill="#FDAEBAff"/><circle cx="74.667" cy="89.334" r="1.667" transform="rotate(-90 74.667 89.334)" fill="#FDAEBAff"/><circle cx="103" cy="89.334" r="1.667" transform="rotate(-90 103 89.334)" fill="#FDAEBAff"/><circle cx="132" cy="89.334" r="1.667" transform="rotate(-90 132 89.334)" fill="#FDAEBAff"/><circle cx="1.667" cy="74.667" r="1.667" transform="rotate(-90 1.667 74.667)" fill="#FDAEBAff"/><circle cx="1.667" cy="31" r="1.667" transform="rotate(-90 1.667 31)" fill="#FDAEBAff"/><circle cx="16.333" cy="74.667" r="1.667" transform="rotate(-90 16.333 74.667)" fill="#FDAEBAff"/><circle cx="16.333" cy="31" r="1.667" transform="rotate(-90 16.333 31)" fill="#FDAEBAff"/><circle cx="31" cy="74.667" r="1.667" transform="rotate(-90 31 74.667)" fill="#FDAEBAff"/><circle cx="31" cy="31" r="1.667" transform="rotate(-90 31 31)" fill="#FDAEBAff"/><circle cx="45.667" cy="74.667" r="1.667" transform="rotate(-90 45.667 74.667)" fill="#FDAEBAff"/><circle cx="45.667" cy="31" r="1.667" transform="rotate(-90 45.667 31)" fill="#FDAEBAff"/><circle cx="60.333" cy="74.667" r="1.667" transform="rotate(-90 60.333 74.667)" fill="#FDAEBAff"/><circle cx="60.333" cy="31" r="1.667" transform="rotate(-90 60.333 31)" fill="#FDAEBAff"/><circle cx="88.667" cy="74.667" r="1.667" transform="rotate(-90 88.667 74.667)" fill="#FDAEBAff"/><circle cx="88.667" cy="31" r="1.667" transform="rotate(-90 88.667 31)" fill="#FDAEBAff"/><circle cx="117.667" cy="74.667" r="1.667" transform="rotate(-90 117.667 74.667)" fill="#FDAEBAff"/><circle cx="117.667" cy="31" r="1.667" transform="rotate(-90 117.667 31)" fill="#FDAEBAff"/><circle cx="74.667" cy="74.667" r="1.667" transform="rotate(-90 74.667 74.667)" fill="#FDAEBAff"/><circle cx="74.667" cy="31" r="1.667" transform="rotate(-90 74.667 31)" fill="#FDAEBAff"/><circle cx="103" cy="74.667" r="1.667" transform="rotate(-90 103 74.667)" fill="#FDAEBAff"/><circle cx="103" cy="31" r="1.667" transform="rotate(-90 103 31)" fill="#FDAEBAff"/><circle cx="132" cy="74.667" r="1.667" transform="rotate(-90 132 74.667)" fill="#FDAEBAff"/><circle cx="132" cy="31" r="1.667" transform="rotate(-90 132 31)" fill="#FDAEBAff"/><circle cx="1.667" cy="60" r="1.667" transform="rotate(-90 1.667 60)" fill="#FDAEBAff"/><circle cx="1.667" cy="16.333" r="1.667" transform="rotate(-90 1.667 16.333)" fill="#FDAEBAff"/><circle cx="16.333" cy="60" r="1.667" transform="rotate(-90 16.333 60)" fill="#FDAEBAff"/><circle cx="16.333" cy="16.333" r="1.667" transform="rotate(-90 16.333 16.333)" fill="#FDAEBAff"/><circle cx="31" cy="60" r="1.667" transform="rotate(-90 31 60)" fill="#FDAEBAff"/><circle cx="31" cy="16.333" r="1.667" transform="rotate(-90 31 16.333)" fill="#FDAEBAff"/><circle cx="45.667" cy="60" r="1.667" transform="rotate(-90 45.667 60)" fill="#FDAEBAff"/><circle cx="45.667" cy="16.333" r="1.667" transform="rotate(-90 45.667 16.333)" fill="#FDAEBAff"/><circle cx="60.333" cy="60" r="1.667" transform="rotate(-90 60.333 60)" fill="#FDAEBAff"/><circle cx="60.333" cy="16.333" r="1.667" transform="rotate(-90 60.333 16.333)" fill="#FDAEBAff"/><circle cx="88.667" cy="60" r="1.667" transform="rotate(-90 88.667 60)" fill="#FDAEBAff"/><circle cx="88.667" cy="16.333" r="1.667" transform="rotate(-90 88.667 16.333)" fill="#FDAEBAff"/><circle cx="117.667" cy="60" r="1.667" transform="rotate(-90 117.667 60)" fill="#FDAEBAff"/><circle cx="117.667" cy="16.333" r="1.667" transform="rotate(-90 117.667 16.333)" fill="#FDAEBAff"/><circle cx="74.667" cy="60" r="1.667" transform="rotate(-90 74.667 60)" fill="#FDAEBAff"/><circle cx="74.667" cy="16.333" r="1.667" transform="rotate(-90 74.667 16.333)" fill="#FDAEBAff"/><circle cx="103" cy="60" r="1.667" transform="rotate(-90 103 60)" fill="#FDAEBAff"/><circle cx="103" cy="16.333" r="1.667" transform="rotate(-90 103 16.333)" fill="#FDAEBAff"/><circle cx="132" cy="60" r="1.667" transform="rotate(-90 132 60)" fill="#FDAEBAff"/><circle cx="132" cy="16.333" r="1.667" transform="rotate(-90 132 16.333)" fill="#FDAEBAff"/><circle cx="1.667" cy="45.333" r="1.667" transform="rotate(-90 1.667 45.333)" fill="#FDAEBAff"/><circle cx="1.667" cy="1.667" r="1.667" transform="rotate(-90 1.667 1.667)" fill="#FDAEBAff"/><circle cx="16.333" cy="45.333" r="1.667" transform="rotate(-90 16.333 45.333)" fill="#FDAEBAff"/><circle cx="16.333" cy="1.667" r="1.667" transform="rotate(-90 16.333 1.667)" fill="#FDAEBAff"/><circle cx="31" cy="45.333" r="1.667" transform="rotate(-90 31 45.333)" fill="#FDAEBAff"/><circle cx="31" cy="1.667" r="1.667" transform="rotate(-90 31 1.667)" fill="#FDAEBAff"/><circle cx="45.667" cy="45.333" r="1.667" transform="rotate(-90 45.667 45.333)" fill="#FDAEBAff"/><circle cx="45.667" cy="1.667" r="1.667" transform="rotate(-90 45.667 1.667)" fill="#FDAEBAff"/><circle cx="60.333" cy="45.334" r="1.667" transform="rotate(-90 60.333 45.334)" fill="#FDAEBAff"/><circle cx="60.333" cy="1.667" r="1.667" transform="rotate(-90 60.333 1.667)" fill="#FDAEBAff"/><circle cx="88.667" cy="45.334" r="1.667" transform="rotate(-90 88.667 45.334)" fill="#FDAEBAff"/><circle cx="88.667" cy="1.667" r="1.667" transform="rotate(-90 88.667 1.667)" fill="#FDAEBAff"/><circle cx="117.667" cy="45.334" r="1.667" transform="rotate(-90 117.667 45.334)" fill="#FDAEBAff"/><circle cx="117.667" cy="1.667" r="1.667" transform="rotate(-90 117.667 1.667)" fill="#FDAEBAff"/><circle cx="74.667" cy="45.334" r="1.667" transform="rotate(-90 74.667 45.334)" fill="#FDAEBAff"/><circle cx="74.667" cy="1.667" r="1.667" transform="rotate(-90 74.667 1.667)" fill="#FDAEBAff"/><circle cx="103" cy="45.334" r="1.667" transform="rotate(-90 103 45.334)" fill="#FDAEBAff"/><circle cx="103" cy="1.667" r="1.667" transform="rotate(-90 103 1.667)" fill="#FDAEBAff"/><circle cx="132" cy="45.334" r="1.667" transform="rotate(-90 132 45.334)" fill="#FDAEBAff"/><circle cx="132" cy="1.667" r="1.667" transform="rotate(-90 132 1.667)" fill="#FDAEBAff"/></svg>